<svg width="343" height="414" viewBox="0 0 343 414" fill="none" xmlns="http://www.w3.org/2000/svg">
<path opacity="0.1" d="M-259.101 8.99055L341.96 377.19L335.764 96.0223L-31.1012 -133.82L-259.101 8.99055Z" stroke="white" stroke-width="2"/>
<path opacity="0.1" d="M-287.101 13.9906L313.96 382.19L307.764 101.022L-59.1012 -128.82L-287.101 13.9906Z" stroke="white" stroke-width="2"/>
<path opacity="0.1" d="M-315.101 18.9906L285.96 387.19L279.764 106.022L-87.1012 -123.82L-315.101 18.9906Z" stroke="white" stroke-width="2"/>
<path opacity="0.1" d="M-343.101 23.9906L257.96 392.19L251.764 111.022L-115.101 -118.82L-343.101 23.9906Z" stroke="white" stroke-width="2"/>
<path opacity="0.1" d="M-371.101 28.9906L229.96 397.19L223.764 116.022L-143.101 -113.82L-371.101 28.9906Z" stroke="white" stroke-width="2"/>
<path opacity="0.1" d="M-399.101 33.9906L201.96 402.19L195.764 121.022L-171.101 -108.82L-399.101 33.9906Z" stroke="white" stroke-width="2"/>
<path opacity="0.1" d="M-427.101 38.9906L173.96 407.19L167.764 126.022L-199.101 -103.82L-427.101 38.9906Z" stroke="white" stroke-width="2"/>
<path opacity="0.1" d="M-455.101 43.9906L145.96 412.19L139.764 131.022L-227.101 -98.82L-455.101 43.9906Z" stroke="white" stroke-width="2"/>
</svg>
