<svg width="800" height="549" viewBox="0 0 800 549" fill="none" xmlns="http://www.w3.org/2000/svg">
<path opacity="0.1" d="M602.101 143.991L1.04012 512.19L7.2356 231.022L374.101 1.18001L602.101 143.991Z" stroke="#FF5F00" stroke-width="2"/>
<path opacity="0.1" d="M630.101 148.991L29.0401 517.19L35.2356 236.022L402.101 6.18001L630.101 148.991Z" stroke="#FF5F00" stroke-width="2"/>
<path opacity="0.1" d="M658.101 153.991L57.0401 522.19L63.2356 241.022L430.101 11.18L658.101 153.991Z" stroke="#FF5F00" stroke-width="2"/>
<path opacity="0.1" d="M686.101 158.991L85.0401 527.19L91.2356 246.022L458.101 16.18L686.101 158.991Z" stroke="#FF5F00" stroke-width="2"/>
<path opacity="0.1" d="M714.101 163.991L113.04 532.19L119.236 251.022L486.101 21.18L714.101 163.991Z" stroke="#FF5F00" stroke-width="2"/>
<path opacity="0.1" d="M742.101 168.991L141.04 537.19L147.236 256.022L514.101 26.18L742.101 168.991Z" stroke="#FF5F00" stroke-width="2"/>
<path opacity="0.1" d="M770.101 173.991L169.04 542.19L175.236 261.022L542.101 31.18L770.101 173.991Z" stroke="#FF5F00" stroke-width="2"/>
<path opacity="0.1" d="M798.101 178.991L197.04 547.19L203.236 266.022L570.101 36.18L798.101 178.991Z" stroke="#FF5F00" stroke-width="2"/>
</svg>
