<svg width="112" height="24" viewBox="0 0 112 24" fill="none" xmlns="http://www.w3.org/2000/svg">
<path fill-rule="evenodd" clip-rule="evenodd" d="M17.9588 5.83746V12.6354L3.5542 3.60263L9.05133 0L17.9588 5.83746Z" fill="#B3B3B3"/>
<path fill-rule="evenodd" clip-rule="evenodd" d="M6.28613 8.70402V22.5016H11.6321V8.68159L9.00705 7.01855L6.28613 8.70402Z" fill="white"/>
<path opacity="0.17" fill-rule="evenodd" clip-rule="evenodd" d="M6.30083 8.82693L6.33033 10.4451L15.6139 4.30122L14.541 3.59863L6.29346 8.68866L6.30083 8.82693Z" fill="#161616"/>
<path fill-rule="evenodd" clip-rule="evenodd" d="M0.151162 5.64686L0 12.5943L14.541 3.59889L9.05129 0L0.151162 5.64686Z" fill="#ECECEC"/>
<path fill-rule="evenodd" clip-rule="evenodd" d="M53.4082 10.5261C53.6144 11.161 53.7843 11.8073 53.9169 12.462C53.9169 12.5891 53.4081 12.6937 52.7703 12.6937C52.1325 12.6937 51.6237 12.6152 51.6237 12.5106C51.6237 12.2527 52.7298 8.82199 52.8219 8.82199C52.8477 8.82199 53.1021 9.59559 53.4082 10.5261ZM50.7278 5.46975C50.6541 5.59681 49.6844 8.12688 48.5857 11.0755C47.487 14.0241 46.4953 16.6476 46.3736 16.9055C46.1966 17.3203 46.3478 17.3726 48.1617 17.2792L50.1748 17.2232L50.7868 15.4181H54.8165L55.0967 16.3188L55.4064 17.2232L57.342 17.3016C58.4149 17.354 59.2813 17.3016 59.2813 17.197C59.2813 17.0924 58.4924 14.8762 55.4064 6.56474L54.9198 5.2231H52.9067C51.8007 5.20815 50.831 5.31279 50.7278 5.46975Z" fill="white"/>
<path fill-rule="evenodd" clip-rule="evenodd" d="M86.3394 11.416V17.4777H90.1663V5.35059H86.3394V11.416Z" fill="white"/>
<path fill-rule="evenodd" clip-rule="evenodd" d="M60.4542 5.88818C60.3768 6.14604 60.3251 8.85549 60.351 11.9013L60.4026 17.4472H63.9751L64.1005 14.4276L64.2295 11.4379L68.3109 17.5967L70.0954 17.5182L71.8798 17.4659L71.9572 11.4528L72.0089 5.47335H68.4363V8.59762C68.4363 11.2136 68.3883 11.6957 68.0676 11.4341C67.8906 11.2809 66.8952 9.86079 65.8776 8.3136L64.012 5.47335H62.2792C60.8671 5.44719 60.5574 5.52567 60.4542 5.88818Z" fill="white"/>
<path fill-rule="evenodd" clip-rule="evenodd" d="M40.729 7.90312C41.9273 8.7552 41.0977 9.81282 39.2211 9.81282H37.9712V7.50698H39.0773C39.6521 7.495 40.2205 7.63132 40.729 7.90312ZM34.1479 10.9751V17.0368H37.9712V14.716C37.9712 12.6269 38.0229 12.3952 38.4321 12.3952C39.0699 12.3952 39.4755 12.9109 40.6774 15.1532L41.6729 17.0218H43.7891C44.9358 17.0218 45.8796 16.9732 45.8796 16.8948C45.8796 16.4799 43.7633 12.9221 43.2287 12.4101L42.5909 11.7898L43.4057 11.2442C45.9865 9.51384 45.2934 5.72061 42.2996 5.1264C41.6655 5.0255 39.575 4.92086 37.6579 4.89844H34.1479V10.9751Z" fill="white"/>
<path fill-rule="evenodd" clip-rule="evenodd" d="M75.9427 5.60083C74.6929 6.19504 74.0772 7.20034 74.0772 8.75127C74.0772 10.3022 75.4302 11.5878 77.8046 12.2081C79.9209 12.75 80.7135 13.2134 80.7135 13.86C80.7135 15.3287 78.0074 15.3548 77.3953 13.8861C77.0893 13.1387 77.0267 13.1088 75.327 13.1088C73.6716 13.1088 73.5684 13.135 73.5684 13.6769C73.5684 14.798 74.6744 16.3116 75.8653 16.902C77.34 17.6794 80.3301 17.7279 81.8602 17.0067C84.0723 16.0014 84.9461 13.987 84.0538 11.9764C83.4639 10.6348 82.4722 10.0144 79.7918 9.36043C77.7272 8.8447 77.1409 8.45977 77.6497 7.86556C77.983 7.57869 78.4112 7.43047 78.848 7.45073C79.5374 7.45073 79.7918 7.60769 80.1494 8.25422C80.5071 8.90075 80.684 9.00166 81.3219 8.89702C81.8945 8.78916 82.476 8.73784 83.0584 8.74379C84.0538 8.74379 84.0796 8.71763 83.9248 8.01878C83.7915 7.49421 83.5465 7.00558 83.207 6.58722C82.8675 6.16886 82.4418 5.83091 81.9597 5.5971C80.7357 4.93188 77.3953 4.95804 75.9427 5.60083Z" fill="white"/>
<path fill-rule="evenodd" clip-rule="evenodd" d="M21.668 6.4759V8.02309H25.2406L25.2922 12.4628L25.3696 16.9288L27.2057 17.0035L29.0675 17.082L29.1155 12.6161L29.1966 8.15389L31.0548 8.07541L32.8908 8.00066V4.92871H21.668V6.4759Z" fill="white"/>
<path fill-rule="evenodd" clip-rule="evenodd" d="M93.4954 5.96314C92.2456 6.55735 91.6336 7.56265 91.6336 9.11357C91.6336 10.6645 92.9867 11.9501 95.3573 12.5705C97.4773 13.1123 98.2663 13.5758 98.2663 14.2223C98.2663 15.691 95.5601 15.7172 94.9481 14.2484C94.6421 13.501 94.5794 13.4711 92.8797 13.4711C91.1801 13.4711 91.1211 13.4973 91.1211 14.0392C91.1211 15.1603 92.2272 16.6739 93.418 17.2643C94.8928 18.0417 97.8791 18.0903 99.4129 17.369C101.625 16.3637 102.499 14.3493 101.603 12.3388C101.017 10.9971 100.021 10.3767 97.3445 9.72273C95.2762 9.207 94.69 8.82207 95.2025 8.22786C95.5358 7.941 95.9639 7.79278 96.4007 7.81304C97.0865 7.81304 97.3445 7.97 97.7022 8.61653C98.0598 9.26306 98.2368 9.36396 98.8746 9.25932C99.4457 9.14961 100.026 9.09828 100.607 9.1061C101.603 9.1061 101.629 9.07994 101.478 8.38109C101.344 7.85651 101.099 7.36789 100.76 6.94953C100.42 6.53117 99.9945 6.19321 99.5124 5.9594C98.2921 5.29419 94.9518 5.32035 93.4954 5.96314Z" fill="white"/>
<path fill-rule="evenodd" clip-rule="evenodd" d="M103.178 11.5322V17.5976H107.005V5.4668H103.178V11.5322Z" fill="white"/>
</svg>
