<svg width="128" height="128" viewBox="0 0 128 128" fill="none" xmlns="http://www.w3.org/2000/svg">
<g clip-path="url(#clip0_1_2)">
<path fill-rule="evenodd" clip-rule="evenodd" d="M64 128C99.3462 128 128 99.3462 128 64C128 28.6538 99.3462 0 64 0C28.6538 0 0 28.6538 0 64C0 99.3462 28.6538 128 64 128ZM64 124C97.1371 124 124 97.1371 124 64C124 30.8629 97.1371 4 64 4C30.8629 4 4 30.8629 4 64C4 97.1371 30.8629 124 64 124Z" fill="#FF5F00"/>
<path d="M51.4 73.7C49.8667 73.7 48.5833 73.1833 47.55 72.15C46.5167 71.1167 46 69.8333 46 68.3C46 66.7667 46.5167 65.4833 47.55 64.45C48.5833 63.4167 49.8667 62.9 51.4 62.9C52.9333 62.9 54.2167 63.4167 55.25 64.45C56.2833 65.4833 56.8 66.7667 56.8 68.3C56.8 69.8333 56.2833 71.1167 55.25 72.15C54.2167 73.1833 52.9333 73.7 51.4 73.7ZM76.7 73.7C75.1667 73.7 73.8833 73.1833 72.85 72.15C71.8167 71.1167 71.3 69.8333 71.3 68.3C71.3 66.7667 71.8167 65.4833 72.85 64.45C73.8833 63.4167 75.1667 62.9 76.7 62.9C78.2333 62.9 79.5167 63.4167 80.55 64.45C81.5833 65.4833 82.1 66.7667 82.1 68.3C82.1 69.8333 81.5833 71.1167 80.55 72.15C79.5167 73.1833 78.2333 73.7 76.7 73.7ZM64 98C73.4667 98 81.5 94.7 88.1 88.1C94.7 81.5 98 73.4667 98 64C98 62.2667 97.8667 60.5667 97.6 58.9C97.3333 57.2333 97 55.7 96.6 54.3C95.2667 54.6333 93.8167 54.8667 92.25 55C90.6833 55.1333 89.0667 55.2 87.4 55.2C80.9333 55.2 74.8167 53.8667 69.05 51.2C63.2833 48.5333 58.3667 44.7333 54.3 39.8C52.0333 45.2 48.7833 49.9167 44.55 53.95C40.3167 57.9833 35.4667 61.1 30 63.3V64C30 73.4667 33.3 81.5 39.9 88.1C46.5 94.7 54.5333 98 64 98ZM64 104C58.4667 104 53.2667 102.95 48.4 100.85C43.5333 98.75 39.3 95.9 35.7 92.3C32.1 88.7 29.25 84.4667 27.15 79.6C25.05 74.7333 24 69.5333 24 64C24 58.4667 25.05 53.2667 27.15 48.4C29.25 43.5333 32.1 39.3 35.7 35.7C39.3 32.1 43.5333 29.25 48.4 27.15C53.2667 25.05 58.4667 24 64 24C69.5333 24 74.7333 25.05 79.6 27.15C84.4667 29.25 88.7 32.1 92.3 35.7C95.9 39.3 98.75 43.5333 100.85 48.4C102.95 53.2667 104 58.4667 104 64C104 69.5333 102.95 74.7333 100.85 79.6C98.75 84.4667 95.9 88.7 92.3 92.3C88.7 95.9 84.4667 98.75 79.6 100.85C74.7333 102.95 69.5333 104 64 104Z" fill="#FF5F00"/>
</g>
<defs>
<clipPath id="clip0_1_2">
<rect width="128" height="128" rx="64" fill="white"/>
</clipPath>
</defs>
</svg>
