<svg width="128" height="128" viewBox="0 0 128 128" fill="none" xmlns="http://www.w3.org/2000/svg">
<g clip-path="url(#clip0_2_27)">
<path fill-rule="evenodd" clip-rule="evenodd" d="M64 128C99.3462 128 128 99.3462 128 64C128 28.6538 99.3462 0 64 0C28.6538 0 0 28.6538 0 64C0 99.3462 28.6538 128 64 128ZM64 124C97.1371 124 124 97.1371 124 64C124 30.8629 97.1371 4 64 4C30.8629 4 4 30.8629 4 64C4 97.1371 30.8629 124 64 124Z" fill="#FF5F00"/>
<path d="M20 96V80C20 78.0667 20.6833 76.4167 22.05 75.05C23.4167 73.6833 25.0667 73 27 73H41.1C42.2333 73 43.3167 73.2833 44.35 73.85C45.3833 74.4167 46.2667 75.2 47 76.2C48.9333 79 51.4 81.1667 54.4 82.7C57.4 84.2333 60.6 85 64 85C67.4 85 70.6 84.2333 73.6 82.7C76.6 81.1667 79.1 79 81.1 76.2C81.8333 75.2 82.7 74.4167 83.7 73.85C84.7 73.2833 85.7667 73 86.9 73H101C102.933 73 104.583 73.6833 105.95 75.05C107.317 76.4167 108 78.0667 108 80V96H82V84.1C79.6 86.3 76.85 88 73.75 89.2C70.65 90.4 67.4 91 64 91C60.6 91 57.3667 90.4 54.3 89.2C51.2333 88 48.4667 86.3 46 84.1V96H20ZM64 79C61.6667 79 59.4167 78.45 57.25 77.35C55.0833 76.25 53.3333 74.7333 52 72.8C50.9333 71.2667 49.65 70.0333 48.15 69.1C46.65 68.1667 45.0333 67.5333 43.3 67.2C45.2333 65.2 48.2667 63.6667 52.4 62.6C56.5333 61.5333 60.4 61 64 61C67.6 61 71.4833 61.5333 75.65 62.6C79.8167 63.6667 82.8667 65.2 84.8 67.2C83.0667 67.5333 81.45 68.1667 79.95 69.1C78.45 70.0333 77.1667 71.2667 76.1 72.8C74.7667 74.7333 73.0167 76.25 70.85 77.35C68.6833 78.45 66.4 79 64 79ZM32 66C29 66 26.4167 64.9167 24.25 62.75C22.0833 60.5833 21 58 21 55C21 51.9333 22.0833 49.3333 24.25 47.2C26.4167 45.0667 29 44 32 44C35.0667 44 37.6667 45.0667 39.8 47.2C41.9333 49.3333 43 51.9333 43 55C43 58 41.9333 60.5833 39.8 62.75C37.6667 64.9167 35.0667 66 32 66ZM96 66C93 66 90.4167 64.9167 88.25 62.75C86.0833 60.5833 85 58 85 55C85 51.9333 86.0833 49.3333 88.25 47.2C90.4167 45.0667 93 44 96 44C99.0667 44 101.667 45.0667 103.8 47.2C105.933 49.3333 107 51.9333 107 55C107 58 105.933 60.5833 103.8 62.75C101.667 64.9167 99.0667 66 96 66ZM64 54C61 54 58.4167 52.9167 56.25 50.75C54.0833 48.5833 53 46 53 43C53 39.9333 54.0833 37.3333 56.25 35.2C58.4167 33.0667 61 32 64 32C67.0667 32 69.6667 33.0667 71.8 35.2C73.9333 37.3333 75 39.9333 75 43C75 46 73.9333 48.5833 71.8 50.75C69.6667 52.9167 67.0667 54 64 54Z" fill="#FF5F00"/>
</g>
<defs>
<clipPath id="clip0_2_27">
<rect width="128" height="128" rx="64" fill="white"/>
</clipPath>
</defs>
</svg>
