<svg width="128" height="128" viewBox="0 0 128 128" fill="none" xmlns="http://www.w3.org/2000/svg">
<g clip-path="url(#clip0_2_17)">
<path fill-rule="evenodd" clip-rule="evenodd" d="M64 128C99.3462 128 128 99.3462 128 64C128 28.6538 99.3462 0 64 0C28.6538 0 0 28.6538 0 64C0 99.3462 28.6538 128 64 128ZM64 124C97.1371 124 124 97.1371 124 64C124 30.8629 97.1371 4 64 4C30.8629 4 4 30.8629 4 64C4 97.1371 30.8629 124 64 124Z" fill="#FF5F00"/>
<path d="M64 104.7C61.7333 104.7 59.8167 103.917 58.25 102.35C56.6833 100.783 55.9 98.8667 55.9 96.6H72.1C72.1 98.8667 71.3167 100.783 69.75 102.35C68.1833 103.917 66.2667 104.7 64 104.7ZM47.8 90.4V84.4H80.2V90.4H47.8ZM48.3 78.3C43.9 75.4333 40.4167 71.85 37.85 67.55C35.2833 63.25 34 58.4 34 53C34 44.8667 36.9667 37.8333 42.9 31.9C48.8333 25.9667 55.8667 23 64 23C72.1333 23 79.1667 25.9667 85.1 31.9C91.0333 37.8333 94 44.8667 94 53C94 58.4 92.7333 63.25 90.2 67.55C87.6667 71.85 84.1667 75.4333 79.7 78.3H48.3Z" fill="#FF5F00"/>
<path d="M27.4312 33.5688L30 39L32.5688 33.5688L38 31L32.5688 28.4312L30 23L27.4312 28.4312L22 31L27.4312 33.5688Z" fill="#FF5F00"/>
<path d="M20.7397 40.2603L22 43L23.2603 40.2603L26 39L23.2603 37.7397L22 35L20.7397 37.7397L18 39L20.7397 40.2603Z" fill="#FF5F00"/>
</g>
<defs>
<clipPath id="clip0_2_17">
<rect width="128" height="128" rx="64" fill="white"/>
</clipPath>
</defs>
</svg>
